<mxfile host="app.diagrams.net" modified="2023-03-23T06:57:45.452Z" agent="5.0 (Windows)" etag="eJeoZ_SwF4-b7FXFRnT1" version="21.0.10" type="github">
  <diagram name="Page-1" id="Sw33zN6kMQjCgNNsfK90">
    <mxGraphModel dx="1114" dy="602" grid="1" gridSize="10" guides="1" tooltips="1" connect="1" arrows="1" fold="1" page="1" pageScale="1" pageWidth="827" pageHeight="1169" math="0" shadow="0">
      <root>
        <mxCell id="0" />
        <mxCell id="1" parent="0" />
      </root>
    </mxGraphModel>
  </diagram>
</mxfile>
